<svg width="109" height="13" viewBox="0 0 109 13" fill="none" xmlns="http://www.w3.org/2000/svg">
<path d="M7.01562 12H0.4375V0.578125H7.01562V2.5625H2.85938V5.07031H6.72656V7.05469H2.85938V10H7.01562V12ZM8.94531 8.6875V6.73438H13.1406V8.6875H8.94531ZM20.4141 2.42969C19.9505 2.42969 19.5391 2.52083 19.1797 2.70312C18.8255 2.88021 18.526 3.13802 18.2812 3.47656C18.0417 3.8151 17.8594 4.22396 17.7344 4.70312C17.6094 5.18229 17.5469 5.72135 17.5469 6.32031C17.5469 7.1276 17.6458 7.81771 17.8438 8.39062C18.0469 8.95833 18.3594 9.39323 18.7812 9.69531C19.2031 9.99219 19.7474 10.1406 20.4141 10.1406C20.8776 10.1406 21.3411 10.0885 21.8047 9.98438C22.2734 9.88021 22.7812 9.73177 23.3281 9.53906V11.5703C22.8229 11.7786 22.3255 11.9271 21.8359 12.0156C21.3464 12.1094 20.7969 12.1562 20.1875 12.1562C19.0104 12.1562 18.0417 11.9141 17.2812 11.4297C16.526 10.9401 15.9661 10.2578 15.6016 9.38281C15.237 8.5026 15.0547 7.47656 15.0547 6.30469C15.0547 5.4401 15.1719 4.64844 15.4062 3.92969C15.6406 3.21094 15.9844 2.58854 16.4375 2.0625C16.8906 1.53646 17.4505 1.13021 18.1172 0.84375C18.7839 0.557292 19.5495 0.414062 20.4141 0.414062C20.9818 0.414062 21.5495 0.486979 22.1172 0.632812C22.6901 0.773438 23.237 0.96875 23.7578 1.21875L22.9766 3.1875C22.5495 2.98438 22.1198 2.80729 21.6875 2.65625C21.2552 2.50521 20.8307 2.42969 20.4141 2.42969ZM36.6328 6.27344C36.6328 7.15365 36.5234 7.95573 36.3047 8.67969C36.0859 9.39844 35.7526 10.0182 35.3047 10.5391C34.862 11.0599 34.2995 11.4609 33.6172 11.7422C32.9349 12.0182 32.1276 12.1562 31.1953 12.1562C30.263 12.1562 29.4557 12.0182 28.7734 11.7422C28.0911 11.4609 27.526 11.0599 27.0781 10.5391C26.6354 10.0182 26.3047 9.39583 26.0859 8.67188C25.8672 7.94792 25.7578 7.14323 25.7578 6.25781C25.7578 5.07552 25.9505 4.04688 26.3359 3.17188C26.7266 2.29167 27.3255 1.60938 28.1328 1.125C28.9401 0.640625 29.9661 0.398438 31.2109 0.398438C32.4505 0.398438 33.4688 0.640625 34.2656 1.125C35.0677 1.60938 35.6615 2.29167 36.0469 3.17188C36.4375 4.05208 36.6328 5.08594 36.6328 6.27344ZM28.2969 6.27344C28.2969 7.07031 28.3958 7.75781 28.5938 8.33594C28.7969 8.90885 29.112 9.35156 29.5391 9.66406C29.9661 9.97135 30.5182 10.125 31.1953 10.125C31.8828 10.125 32.4401 9.97135 32.8672 9.66406C33.2943 9.35156 33.6042 8.90885 33.7969 8.33594C33.9948 7.75781 34.0938 7.07031 34.0938 6.27344C34.0938 5.07552 33.8698 4.13281 33.4219 3.44531C32.974 2.75781 32.237 2.41406 31.2109 2.41406C30.5286 2.41406 29.9714 2.57031 29.5391 2.88281C29.112 3.1901 28.7969 3.63281 28.5938 4.21094C28.3958 4.78385 28.2969 5.47135 28.2969 6.27344ZM44.3359 12L41.5859 3.03906H41.5156C41.526 3.2526 41.5417 3.57552 41.5625 4.00781C41.5885 4.4349 41.612 4.89062 41.6328 5.375C41.6536 5.85938 41.6641 6.29688 41.6641 6.6875V12H39.5V0.578125H42.7969L45.5 9.3125H45.5469L48.4141 0.578125H51.7109V12H49.4531V6.59375C49.4531 6.23438 49.4583 5.82031 49.4688 5.35156C49.4844 4.88281 49.5026 4.4375 49.5234 4.01562C49.5443 3.58854 49.5599 3.26823 49.5703 3.05469H49.5L46.5547 12H44.3359ZM59.9297 12L57.1797 3.03906H57.1094C57.1198 3.2526 57.1354 3.57552 57.1562 4.00781C57.1823 4.4349 57.2057 4.89062 57.2266 5.375C57.2474 5.85938 57.2578 6.29688 57.2578 6.6875V12H55.0938V0.578125H58.3906L61.0938 9.3125H61.1406L64.0078 0.578125H67.3047V12H65.0469V6.59375C65.0469 6.23438 65.0521 5.82031 65.0625 5.35156C65.0781 4.88281 65.0964 4.4375 65.1172 4.01562C65.138 3.58854 65.1536 3.26823 65.1641 3.05469H65.0938L62.1484 12H59.9297ZM77.2656 12H70.6875V0.578125H77.2656V2.5625H73.1094V5.07031H76.9766V7.05469H73.1094V10H77.2656V12ZM83.4844 0.578125C84.5208 0.578125 85.375 0.703125 86.0469 0.953125C86.724 1.20312 87.2266 1.58073 87.5547 2.08594C87.8828 2.59115 88.0469 3.22917 88.0469 4C88.0469 4.52083 87.9479 4.97656 87.75 5.36719C87.5521 5.75781 87.2917 6.08854 86.9688 6.35938C86.6458 6.63021 86.2969 6.85156 85.9219 7.02344L89.2812 12H86.5938L83.8672 7.61719H82.5781V12H80.1562V0.578125H83.4844ZM83.3125 2.5625H82.5781V5.64844H83.3594C84.1615 5.64844 84.7344 5.51562 85.0781 5.25C85.4271 4.97917 85.6016 4.58333 85.6016 4.0625C85.6016 3.52083 85.4141 3.13542 85.0391 2.90625C84.6693 2.67708 84.0938 2.5625 83.3125 2.5625ZM96.0703 2.42969C95.6068 2.42969 95.1953 2.52083 94.8359 2.70312C94.4818 2.88021 94.1823 3.13802 93.9375 3.47656C93.6979 3.8151 93.5156 4.22396 93.3906 4.70312C93.2656 5.18229 93.2031 5.72135 93.2031 6.32031C93.2031 7.1276 93.3021 7.81771 93.5 8.39062C93.7031 8.95833 94.0156 9.39323 94.4375 9.69531C94.8594 9.99219 95.4036 10.1406 96.0703 10.1406C96.5339 10.1406 96.9974 10.0885 97.4609 9.98438C97.9297 9.88021 98.4375 9.73177 98.9844 9.53906V11.5703C98.4792 11.7786 97.9818 11.9271 97.4922 12.0156C97.0026 12.1094 96.4531 12.1562 95.8438 12.1562C94.6667 12.1562 93.6979 11.9141 92.9375 11.4297C92.1823 10.9401 91.6224 10.2578 91.2578 9.38281C90.8932 8.5026 90.7109 7.47656 90.7109 6.30469C90.7109 5.4401 90.8281 4.64844 91.0625 3.92969C91.2969 3.21094 91.6406 2.58854 92.0938 2.0625C92.5469 1.53646 93.1068 1.13021 93.7734 0.84375C94.4401 0.557292 95.2057 0.414062 96.0703 0.414062C96.638 0.414062 97.2057 0.486979 97.7734 0.632812C98.3464 0.773438 98.8932 0.96875 99.4141 1.21875L98.6328 3.1875C98.2057 2.98438 97.776 2.80729 97.3438 2.65625C96.9115 2.50521 96.487 2.42969 96.0703 2.42969ZM108.5 12H101.922V0.578125H108.5V2.5625H104.344V5.07031H108.211V7.05469H104.344V10H108.5V12Z" fill="#004282"/>
</svg>
