<svg width="41" height="40" viewBox="0 0 41 40" fill="none" xmlns="http://www.w3.org/2000/svg">
<path d="M20.4568 0C9.41679 0 0.456787 8.96 0.456787 20C0.456787 31.04 9.41679 40 20.4568 40C31.4968 40 40.4568 31.04 40.4568 20C40.4568 8.96 31.4968 0 20.4568 0ZM20.4568 6C23.7768 6 26.4568 8.68 26.4568 12C26.4568 15.32 23.7768 18 20.4568 18C17.1368 18 14.4568 15.32 14.4568 12C14.4568 8.68 17.1368 6 20.4568 6ZM20.4568 34.4C15.4568 34.4 11.0368 31.84 8.45679 27.96C8.51679 23.98 16.4568 21.8 20.4568 21.8C24.4368 21.8 32.3968 23.98 32.4568 27.96C29.8768 31.84 25.4568 34.4 20.4568 34.4Z" fill="black"/>
</svg>
